<?xml version="1.0" encoding="utf-8"?>
<!-- Generator: Adobe Illustrator 25.2.0, SVG Export Plug-In . SVG Version: 6.00 Build 0)  -->
<svg version="1.1" id="Слой_1" xmlns="http://www.w3.org/2000/svg" xmlns:xlink="http://www.w3.org/1999/xlink" x="0px" y="0px"
	 viewBox="0 0 108 26" style="enable-background:new 0 0 108 26;" xml:space="preserve">
<style type="text/css">
	.st0{fill:#005A92;}
	.st1{fill:#00B8EC;}
</style>
<g>
	<path class="st0" d="M86,13.2l3.5-4.8c0,0.4-0.1,1.6-0.1,2.7v2h-1.7C87.2,13.2,86.3,13.2,86,13.2 M83.2,15.2h6.2v3.4h2.5v-3.4H94
		v-2.1h-2.1V4.6h-1.8l-6.9,9V15.2z M73.1,18.6h9.7v-2.2h-6.4c0.9-3.5,6.3-4.3,6.3-8.3c0-2.1-1.5-3.7-4.5-3.7c-1.9,0-3.5,0.6-4.7,1.1
		l0.7,2c1-0.5,2.2-1,3.6-1C79,6.7,80,7.2,80,8.5C80,11.4,73.7,11.6,73.1,18.6"/>
	<path class="st1" d="M68.3,18.9c1.4,0,2.6-0.4,3.4-1L71,16.1c-0.7,0.4-1.4,0.7-2.3,0.7c-1.7,0-2.8-1.1-2.8-3.2c0-1.8,1.1-3.2,3-3.2
		c1,0,1.7,0.3,2.4,0.8V9.1c-0.5-0.3-1.4-0.7-2.7-0.7c-3,0-5.3,2.2-5.3,5.3C63.3,16.6,65.1,18.9,68.3,18.9 M53.8,18.6h2.5v-4.1h1.5
		c0.3,0,0.6,0.3,0.9,1l1.3,3.2h2.7l-1.8-3.8c-0.3-0.7-0.7-1-1.2-1.2v0c0.8-0.5,0.9-1.9,1.4-2.6c0.2-0.2,0.4-0.3,0.7-0.3
		c0.2,0,0.4,0,0.6,0.1V8.5c-0.3-0.1-0.8-0.1-1-0.1c-0.9,0-1.4,0.3-1.8,0.9c-0.8,1.2-0.8,3.3-2.1,3.3h-1.2V8.6h-2.5V18.6z M42.5,18.6
		h2.5l3.1-4.5c0.6-0.8,1.1-1.6,1.3-2.1h0c0,0.6-0.1,1.4-0.1,2.2v4.4h2.5v-10h-2.5l-3.1,4.5c-0.6,0.8-1.1,1.6-1.3,2.1h0
		c0-0.6,0.1-1.4,0.1-2.2V8.6h-2.5V18.6z M34.2,16.5v-5.9c0.4-0.1,0.7-0.2,1.2-0.2c1.8,0,3,1,3,3.2c0,1.9-1,3.2-2.8,3.2
		C35.1,16.8,34.7,16.7,34.2,16.5 M31.7,23.7h2.5v-5c0.5,0.1,1,0.2,1.5,0.2c3.1,0,5.2-2.2,5.2-5.2c0-3.2-1.9-5.2-5.5-5.2
		c-1.4,0-2.7,0.3-3.8,0.6V23.7z M24.7,18.6h2.5v-7.9h3l0.7-2.1h-9.2v2.1h3V18.6z M11,18.6h2.5l3.1-4.5c0.6-0.8,1.1-1.6,1.3-2.1h0
		c0,0.6-0.1,1.4-0.1,2.2v4.4h2.5v-10h-2.5l-3.1,4.5c-0.6,0.8-1.1,1.6-1.3,2.1h0c0-0.6,0.1-1.4,0.1-2.2V8.6H11V18.6z M0,18.6h3.7
		c4.1,0,5.6-1.8,5.6-4.3c0-1.7-0.7-2.9-2-3.5c-1-0.5-2.3-0.7-3.8-0.7h-1V6.8h5.6l0.7-2.1H0V18.6z M2.6,16.5v-4.4h1.1
		c0.9,0,1.7,0.1,2.3,0.4c0.6,0.3,0.9,0.9,0.9,1.8c0,1.5-0.9,2.2-3,2.2H2.6z"/>
	<g>
		<path class="st0" d="M102.2,16.1c-3.2,0-5.8-2.6-5.8-5.8c0-3.2,2.6-5.8,5.8-5.8c3.2,0,5.8,2.6,5.8,5.8
			C108,13.5,105.4,16.1,102.2,16.1z M102.2,6.3c-2.2,0-4,1.8-4,4c0,2.2,1.8,4,4,4s4-1.8,4-4C106.3,8.1,104.5,6.3,102.2,6.3z"/>
	</g>
	<g>
		<polygon class="st0" points="105.3,10.3 102.6,10.3 102.6,7.6 101.9,7.6 101.9,11 105.3,11 		"/>
	</g>
</g>
</svg>
