<?xml version="1.0" encoding="UTF-8" standalone="no"?><svg xmlns:svg="http://www.w3.org/2000/svg" xmlns="http://www.w3.org/2000/svg" xmlns:xlink="http://www.w3.org/1999/xlink" version="1.0" width="64px" height="64px" viewBox="0 0 128 128" xml:space="preserve"><g><path d="M97.63 8.23a7.38 7.38 0 0 1 2.7 10.07L89.2 37.57a7.38 7.38 0 1 1-12.77-7.37l11.12-19.27a7.38 7.38 0 0 1 10.08-2.7z" fill="#2e27eb" fill-opacity="1"/><path d="M97.63 8.23a7.38 7.38 0 0 1 2.7 10.07L89.2 37.57a7.38 7.38 0 1 1-12.77-7.37l11.12-19.27a7.38 7.38 0 0 1 10.08-2.7z" fill="#eae9fd" fill-opacity="0.1" transform="rotate(30 64 64)"/><path d="M97.63 8.23a7.38 7.38 0 0 1 2.7 10.07L89.2 37.57a7.38 7.38 0 1 1-12.77-7.37l11.12-19.27a7.38 7.38 0 0 1 10.08-2.7z" fill="#eae9fd" fill-opacity="0.1" transform="rotate(60 64 64)"/><path d="M97.63 8.23a7.38 7.38 0 0 1 2.7 10.07L89.2 37.57a7.38 7.38 0 1 1-12.77-7.37l11.12-19.27a7.38 7.38 0 0 1 10.08-2.7z" fill="#eae9fd" fill-opacity="0.1" transform="rotate(90 64 64)"/><path d="M97.63 8.23a7.38 7.38 0 0 1 2.7 10.07L89.2 37.57a7.38 7.38 0 1 1-12.77-7.37l11.12-19.27a7.38 7.38 0 0 1 10.08-2.7z" fill="#d7d5fb" fill-opacity="0.19" transform="rotate(120 64 64)"/><path d="M97.63 8.23a7.38 7.38 0 0 1 2.7 10.07L89.2 37.57a7.38 7.38 0 1 1-12.77-7.37l11.12-19.27a7.38 7.38 0 0 1 10.08-2.7z" fill="#c4c2f9" fill-opacity="0.28" transform="rotate(150 64 64)"/><path d="M97.63 8.23a7.38 7.38 0 0 1 2.7 10.07L89.2 37.57a7.38 7.38 0 1 1-12.77-7.37l11.12-19.27a7.38 7.38 0 0 1 10.08-2.7z" fill="#b0aef7" fill-opacity="0.38" transform="rotate(180 64 64)"/><path d="M97.63 8.23a7.38 7.38 0 0 1 2.7 10.07L89.2 37.57a7.38 7.38 0 1 1-12.77-7.37l11.12-19.27a7.38 7.38 0 0 1 10.08-2.7z" fill="#9e9bf6" fill-opacity="0.46" transform="rotate(210 64 64)"/><path d="M97.63 8.23a7.38 7.38 0 0 1 2.7 10.07L89.2 37.57a7.38 7.38 0 1 1-12.77-7.37l11.12-19.27a7.38 7.38 0 0 1 10.08-2.7z" fill="#8b88f4" fill-opacity="0.55" transform="rotate(240 64 64)"/><path d="M97.63 8.23a7.38 7.38 0 0 1 2.7 10.07L89.2 37.57a7.38 7.38 0 1 1-12.77-7.37l11.12-19.27a7.38 7.38 0 0 1 10.08-2.7z" fill="#7975f2" fill-opacity="0.64" transform="rotate(270 64 64)"/><path d="M97.63 8.23a7.38 7.38 0 0 1 2.7 10.07L89.2 37.57a7.38 7.38 0 1 1-12.77-7.37l11.12-19.27a7.38 7.38 0 0 1 10.08-2.7z" fill="#6661f0" fill-opacity="0.73" transform="rotate(300 64 64)"/><path d="M97.63 8.23a7.38 7.38 0 0 1 2.7 10.07L89.2 37.57a7.38 7.38 0 1 1-12.77-7.37l11.12-19.27a7.38 7.38 0 0 1 10.08-2.7z" fill="#544eef" fill-opacity="0.82" transform="rotate(330 64 64)"/><animateTransform attributeName="transform" type="rotate" values="0 64 64;30 64 64;60 64 64;90 64 64;120 64 64;150 64 64;180 64 64;210 64 64;240 64 64;270 64 64;300 64 64;330 64 64" calcMode="discrete" dur="1080ms" repeatCount="indefinite"></animateTransform></g></svg>