<svg width="304" height="66" viewBox="0 0 304 66" fill="none" xmlns="http://www.w3.org/2000/svg">
<path d="M236.5 54.8414H212.195C205.808 54.8414 199.887 51.5696 196.46 46.2725C191.474 38.4826 191.007 29.6022 195.058 22.2797C198.953 15.2688 206.431 10.7507 214.377 10.7507H236.5V19.1637H214.377C209.391 19.1637 204.717 21.9681 202.38 26.3304C199.732 31.0044 200.199 36.7689 203.471 41.9102C205.34 44.8703 208.612 46.7399 212.195 46.7399H236.5V54.8414Z" fill="white"/>
<path d="M125.884 10.7507H81.7937V19.1638H125.884V10.7507Z" fill="white"/>
<path d="M81.7937 37.0802H125.884V28.6671H90.051V25.2396H81.7937V36.9244V37.0802Z" fill="white"/>
<path d="M90.051 46.5839V43.1564H81.7937V54.8412H125.884V46.5839H90.051Z" fill="white"/>
<path d="M288.848 31.4715H279.188L274.047 23.0584L254.728 55.3085H244.913L271.866 10.4388H276.228L288.848 31.4715Z" fill="white"/>
<path d="M169.195 54.8411H137.568V46.428H169.195C170.441 46.428 171.532 45.9606 172.311 44.87C174.959 40.9751 172.311 36.7686 168.572 36.7686H150.032C145.358 36.7686 140.84 34.12 138.814 29.7577C134.296 19.9424 141.307 10.4388 150.499 10.4388H179.166V18.8519H149.876C148.63 18.8519 147.539 19.3192 146.76 20.4098C144.112 24.3048 146.76 28.5113 150.499 28.5113H168.728C177.92 28.5113 185.086 38.1708 180.412 47.8302C178.387 52.1925 174.025 54.8411 169.195 54.8411Z" fill="white"/>
<path d="M303.181 55.3084H293.366L286.355 43.6236H277.163L272.177 35.2105H291.029L294.145 40.3518L297.884 46.5837L302.713 54.5294L303.181 55.3084Z" fill="white"/>
<path d="M291.031 35.2105L294.147 40.3518L297.886 46.5837" fill="white"/>
<path d="M56.7103 19.1631V10.75H34.5871C26.4856 10.75 19.1631 15.1124 15.2682 22.2791C11.2174 29.6016 11.6848 38.482 16.6703 46.2719C20.0979 51.7248 26.0182 54.8408 32.4059 54.8408H69.1741V65.435H32.7175C14.645 65.435 0 50.79 0 32.7175C0 14.645 14.645 0 32.7175 0H69.3299V46.4277H32.4059C28.8226 46.4277 25.5508 44.7139 23.6812 41.598C20.4095 36.4566 19.9421 30.6921 22.5907 26.0182C25.0834 21.6559 29.6015 18.8515 34.5871 18.8515H56.7103V19.1631Z" fill="white"/>
<path d="M56.7103 19.1631V10.75H34.5871C26.4856 10.75 19.1631 15.1124 15.2682 22.2791C11.2174 29.6016 11.6848 38.482 16.6703 46.2719C20.0979 51.7248 26.0182 54.8408 32.4059 54.8408H69.1741V65.435H32.7175C14.645 65.435 0 50.79 0 32.7175C0 14.645 14.645 0 32.7175 0H69.3299V46.4277H32.4059C28.8226 46.4277 25.5508 44.7139 23.6812 41.598C20.4095 36.4566 19.9421 30.6921 22.5907 26.0182C25.0834 21.6559 29.6015 18.8515 34.5871 18.8515H56.7103V19.1631Z" fill="url(#paint0_linear_508_1228)"/>
<path d="M56.7103 19.1631V10.75H34.5871C26.4856 10.75 19.1631 15.1124 15.2682 22.2791C11.2174 29.6016 11.6848 38.482 16.6703 46.2719C20.0979 51.7248 26.0182 54.8408 32.4059 54.8408H69.1741V65.435H32.7175C14.645 65.435 0 50.79 0 32.7175C0 14.645 14.645 0 32.7175 0H69.3299V46.4277H32.4059C28.8226 46.4277 25.5508 44.7139 23.6812 41.598C20.4095 36.4566 19.9421 30.6921 22.5907 26.0182C25.0834 21.6559 29.6015 18.8515 34.5871 18.8515H56.7103V19.1631Z" fill="url(#paint1_linear_508_1228)"/>
<path d="M56.7103 19.1631V10.75H34.5871C26.4856 10.75 19.1631 15.1124 15.2682 22.2791C11.2174 29.6016 11.6848 38.482 16.6703 46.2719C20.0979 51.7248 26.0182 54.8408 32.4059 54.8408H69.1741V65.435H32.7175C14.645 65.435 0 50.79 0 32.7175C0 14.645 14.645 0 32.7175 0H69.3299V46.4277H32.4059C28.8226 46.4277 25.5508 44.7139 23.6812 41.598C20.4095 36.4566 19.9421 30.6921 22.5907 26.0182C25.0834 21.6559 29.6015 18.8515 34.5871 18.8515H56.7103V19.1631Z" fill="url(#paint2_linear_508_1228)"/>
<path d="M56.7103 19.1631V10.75H34.5871C26.4856 10.75 19.1631 15.1124 15.2682 22.2791C11.2174 29.6016 11.6848 38.482 16.6703 46.2719C20.0979 51.7248 26.0182 54.8408 32.4059 54.8408H69.1741V65.435H32.7175C14.645 65.435 0 50.79 0 32.7175C0 14.645 14.645 0 32.7175 0H69.3299V46.4277H32.4059C28.8226 46.4277 25.5508 44.7139 23.6812 41.598C20.4095 36.4566 19.9421 30.6921 22.5907 26.0182C25.0834 21.6559 29.6015 18.8515 34.5871 18.8515H56.7103V19.1631Z" fill="url(#paint3_linear_508_1228)"/>
<path d="M56.7103 19.1631V10.75H34.5871C26.4856 10.75 19.1631 15.1124 15.2682 22.2791C11.2174 29.6016 11.6848 38.482 16.6703 46.2719C20.0979 51.7248 26.0182 54.8408 32.4059 54.8408H69.1741V65.435H32.7175C14.645 65.435 0 50.79 0 32.7175C0 14.645 14.645 0 32.7175 0H69.3299V46.4277H32.4059C28.8226 46.4277 25.5508 44.7139 23.6812 41.598C20.4095 36.4566 19.9421 30.6921 22.5907 26.0182C25.0834 21.6559 29.6015 18.8515 34.5871 18.8515H56.7103V19.1631Z" fill="white"/>
<path d="M56.7103 19.1631V10.75H34.5871C26.4856 10.75 19.1631 15.1124 15.2682 22.2791C11.2174 29.6016 11.6848 38.482 16.6703 46.2719C20.0979 51.7248 26.0182 54.8408 32.4059 54.8408H69.1741V65.435H32.7175C14.645 65.435 0 50.79 0 32.7175C0 14.645 14.645 0 32.7175 0H69.3299V46.4277H32.4059C28.8226 46.4277 25.5508 44.7139 23.6812 41.598C20.4095 36.4566 19.9421 30.6921 22.5907 26.0182C25.0834 21.6559 29.6015 18.8515 34.5871 18.8515H56.7103V19.1631Z" fill="url(#paint4_linear_508_1228)"/>
<path d="M56.7103 19.1631V10.75H34.5871C26.4856 10.75 19.1631 15.1124 15.2682 22.2791C11.2174 29.6016 11.6848 38.482 16.6703 46.2719C20.0979 51.7248 26.0182 54.8408 32.4059 54.8408H69.1741V65.435H32.7175C14.645 65.435 0 50.79 0 32.7175C0 14.645 14.645 0 32.7175 0H69.3299V46.4277H32.4059C28.8226 46.4277 25.5508 44.7139 23.6812 41.598C20.4095 36.4566 19.9421 30.6921 22.5907 26.0182C25.0834 21.6559 29.6015 18.8515 34.5871 18.8515H56.7103V19.1631Z" fill="url(#paint5_linear_508_1228)"/>
<path d="M56.7103 19.1631V10.75H34.5871C26.4856 10.75 19.1631 15.1124 15.2682 22.2791C11.2174 29.6016 11.6848 38.482 16.6703 46.2719C20.0979 51.7248 26.0182 54.8408 32.4059 54.8408H69.1741V65.435H32.7175C14.645 65.435 0 50.79 0 32.7175C0 14.645 14.645 0 32.7175 0H69.3299V46.4277H32.4059C28.8226 46.4277 25.5508 44.7139 23.6812 41.598C20.4095 36.4566 19.9421 30.6921 22.5907 26.0182C25.0834 21.6559 29.6015 18.8515 34.5871 18.8515H56.7103V19.1631Z" fill="url(#paint6_linear_508_1228)"/>
<path d="M56.7103 19.1631V10.75H34.5871C26.4856 10.75 19.1631 15.1124 15.2682 22.2791C11.2174 29.6016 11.6848 38.482 16.6703 46.2719C20.0979 51.7248 26.0182 54.8408 32.4059 54.8408H69.1741V65.435H32.7175C14.645 65.435 0 50.79 0 32.7175C0 14.645 14.645 0 32.7175 0H69.3299V46.4277H32.4059C28.8226 46.4277 25.5508 44.7139 23.6812 41.598C20.4095 36.4566 19.9421 30.6921 22.5907 26.0182C25.0834 21.6559 29.6015 18.8515 34.5871 18.8515H56.7103V19.1631Z" fill="url(#paint7_linear_508_1228)"/>
<path d="M56.7103 19.1631V10.75H34.5871C26.4856 10.75 19.1631 15.1124 15.2682 22.2791C11.2174 29.6016 11.6848 38.482 16.6703 46.2719C20.0979 51.7248 26.0182 54.8408 32.4059 54.8408H69.1741V65.435H32.7175C14.645 65.435 0 50.79 0 32.7175C0 14.645 14.645 0 32.7175 0H69.3299V46.4277H32.4059C28.8226 46.4277 25.5508 44.7139 23.6812 41.598C20.4095 36.4566 19.9421 30.6921 22.5907 26.0182C25.0834 21.6559 29.6015 18.8515 34.5871 18.8515H56.7103V19.1631Z" fill="white"/>
<path d="M56.7103 19.1631V10.75H34.5871C26.4856 10.75 19.1631 15.1124 15.2682 22.2791C11.2174 29.6016 11.6848 38.482 16.6703 46.2719C20.0979 51.7248 26.0182 54.8408 32.4059 54.8408H69.1741V65.435H32.7175C14.645 65.435 0 50.79 0 32.7175C0 14.645 14.645 0 32.7175 0H69.3299V46.4277H32.4059C28.8226 46.4277 25.5508 44.7139 23.6812 41.598C20.4095 36.4566 19.9421 30.6921 22.5907 26.0182C25.0834 21.6559 29.6015 18.8515 34.5871 18.8515H56.7103V19.1631Z" fill="url(#paint8_linear_508_1228)"/>
<path d="M56.7103 19.1631V10.75H34.5871C26.4856 10.75 19.1631 15.1124 15.2682 22.2791C11.2174 29.6016 11.6848 38.482 16.6703 46.2719C20.0979 51.7248 26.0182 54.8408 32.4059 54.8408H69.1741V65.435H32.7175C14.645 65.435 0 50.79 0 32.7175C0 14.645 14.645 0 32.7175 0H69.3299V46.4277H32.4059C28.8226 46.4277 25.5508 44.7139 23.6812 41.598C20.4095 36.4566 19.9421 30.6921 22.5907 26.0182C25.0834 21.6559 29.6015 18.8515 34.5871 18.8515H56.7103V19.1631Z" fill="url(#paint9_linear_508_1228)"/>
<path d="M56.7103 19.1631V10.75H34.5871C26.4856 10.75 19.1631 15.1124 15.2682 22.2791C11.2174 29.6016 11.6848 38.482 16.6703 46.2719C20.0979 51.7248 26.0182 54.8408 32.4059 54.8408H69.1741V65.435H32.7175C14.645 65.435 0 50.79 0 32.7175C0 14.645 14.645 0 32.7175 0H69.3299V46.4277H32.4059C28.8226 46.4277 25.5508 44.7139 23.6812 41.598C20.4095 36.4566 19.9421 30.6921 22.5907 26.0182C25.0834 21.6559 29.6015 18.8515 34.5871 18.8515H56.7103V19.1631Z" fill="url(#paint10_linear_508_1228)"/>
<path d="M56.7103 19.1631V10.75H34.5871C26.4856 10.75 19.1631 15.1124 15.2682 22.2791C11.2174 29.6016 11.6848 38.482 16.6703 46.2719C20.0979 51.7248 26.0182 54.8408 32.4059 54.8408H69.1741V65.435H32.7175C14.645 65.435 0 50.79 0 32.7175C0 14.645 14.645 0 32.7175 0H69.3299V46.4277H32.4059C28.8226 46.4277 25.5508 44.7139 23.6812 41.598C20.4095 36.4566 19.9421 30.6921 22.5907 26.0182C25.0834 21.6559 29.6015 18.8515 34.5871 18.8515H56.7103V19.1631Z" fill="url(#paint11_linear_508_1228)"/>
<path d="M56.7103 19.1631V10.75H34.5871C26.4856 10.75 19.1631 15.1124 15.2682 22.2791C11.2174 29.6016 11.6848 38.482 16.6703 46.2719C20.0979 51.7248 26.0182 54.8408 32.4059 54.8408H69.1741V65.435H32.7175C14.645 65.435 0 50.79 0 32.7175C0 14.645 14.645 0 32.7175 0H69.3299V46.4277H32.4059C28.8226 46.4277 25.5508 44.7139 23.6812 41.598C20.4095 36.4566 19.9421 30.6921 22.5907 26.0182C25.0834 21.6559 29.6015 18.8515 34.5871 18.8515H56.7103V19.1631Z" fill="white"/>
<path d="M56.7103 19.1631V10.75H34.5871C26.4856 10.75 19.1631 15.1124 15.2682 22.2791C11.2174 29.6016 11.6848 38.482 16.6703 46.2719C20.0979 51.7248 26.0182 54.8408 32.4059 54.8408H69.1741V65.435H32.7175C14.645 65.435 0 50.79 0 32.7175C0 14.645 14.645 0 32.7175 0H69.3299V46.4277H32.4059C28.8226 46.4277 25.5508 44.7139 23.6812 41.598C20.4095 36.4566 19.9421 30.6921 22.5907 26.0182C25.0834 21.6559 29.6015 18.8515 34.5871 18.8515H56.7103V19.1631Z" fill="url(#paint12_linear_508_1228)"/>
<path d="M56.7103 19.1631V10.75H34.5871C26.4856 10.75 19.1631 15.1124 15.2682 22.2791C11.2174 29.6016 11.6848 38.482 16.6703 46.2719C20.0979 51.7248 26.0182 54.8408 32.4059 54.8408H69.1741V65.435H32.7175C14.645 65.435 0 50.79 0 32.7175C0 14.645 14.645 0 32.7175 0H69.3299V46.4277H32.4059C28.8226 46.4277 25.5508 44.7139 23.6812 41.598C20.4095 36.4566 19.9421 30.6921 22.5907 26.0182C25.0834 21.6559 29.6015 18.8515 34.5871 18.8515H56.7103V19.1631Z" fill="url(#paint13_linear_508_1228)"/>
<path d="M56.7103 19.1631V10.75H34.5871C26.4856 10.75 19.1631 15.1124 15.2682 22.2791C11.2174 29.6016 11.6848 38.482 16.6703 46.2719C20.0979 51.7248 26.0182 54.8408 32.4059 54.8408H69.1741V65.435H32.7175C14.645 65.435 0 50.79 0 32.7175C0 14.645 14.645 0 32.7175 0H69.3299V46.4277H32.4059C28.8226 46.4277 25.5508 44.7139 23.6812 41.598C20.4095 36.4566 19.9421 30.6921 22.5907 26.0182C25.0834 21.6559 29.6015 18.8515 34.5871 18.8515H56.7103V19.1631Z" fill="url(#paint14_linear_508_1228)"/>
<path d="M56.7103 19.1631V10.75H34.5871C26.4856 10.75 19.1631 15.1124 15.2682 22.2791C11.2174 29.6016 11.6848 38.482 16.6703 46.2719C20.0979 51.7248 26.0182 54.8408 32.4059 54.8408H69.1741V65.435H32.7175C14.645 65.435 0 50.79 0 32.7175C0 14.645 14.645 0 32.7175 0H69.3299V46.4277H32.4059C28.8226 46.4277 25.5508 44.7139 23.6812 41.598C20.4095 36.4566 19.9421 30.6921 22.5907 26.0182C25.0834 21.6559 29.6015 18.8515 34.5871 18.8515H56.7103V19.1631Z" fill="url(#paint15_linear_508_1228)"/>
<defs>
<linearGradient id="paint0_linear_508_1228" x1="66.0853" y1="-3.97711" x2="-27.3812" y2="17.8184" gradientUnits="userSpaceOnUse">
<stop stop-color="#D7AFD2"/>
<stop offset="0.781852" stop-color="#D7AFD2" stop-opacity="0"/>
</linearGradient>
<linearGradient id="paint1_linear_508_1228" x1="69.6623" y1="68.1365" x2="62.0873" y2="8.38572" gradientUnits="userSpaceOnUse">
<stop offset="0.152446" stop-color="#4A4595"/>
<stop offset="0.965424" stop-color="#4A4595" stop-opacity="0"/>
</linearGradient>
<linearGradient id="paint2_linear_508_1228" x1="-7.37895" y1="62.3083" x2="32.4924" y2="28.8654" gradientUnits="userSpaceOnUse">
<stop offset="0.257529" stop-color="#2BADDD"/>
<stop offset="1" stop-color="#2BADDD" stop-opacity="0"/>
</linearGradient>
<linearGradient id="paint3_linear_508_1228" x1="2.32624" y1="3.50187" x2="30.0911" y2="23.4876" gradientUnits="userSpaceOnUse">
<stop stop-color="#6DC9EC"/>
<stop offset="1" stop-color="#6DC9EC" stop-opacity="0"/>
</linearGradient>
<linearGradient id="paint4_linear_508_1228" x1="66.0853" y1="-3.97711" x2="-27.3812" y2="17.8184" gradientUnits="userSpaceOnUse">
<stop stop-color="#D7AFD2"/>
<stop offset="0.781852" stop-color="#D7AFD2" stop-opacity="0"/>
</linearGradient>
<linearGradient id="paint5_linear_508_1228" x1="69.6623" y1="68.1365" x2="62.0873" y2="8.38572" gradientUnits="userSpaceOnUse">
<stop offset="0.152446" stop-color="#4A4595"/>
<stop offset="0.965424" stop-color="#4A4595" stop-opacity="0"/>
</linearGradient>
<linearGradient id="paint6_linear_508_1228" x1="-7.37895" y1="62.3083" x2="32.4924" y2="28.8654" gradientUnits="userSpaceOnUse">
<stop offset="0.257529" stop-color="#2BADDD"/>
<stop offset="1" stop-color="#2BADDD" stop-opacity="0"/>
</linearGradient>
<linearGradient id="paint7_linear_508_1228" x1="2.32624" y1="3.50187" x2="30.0911" y2="23.4876" gradientUnits="userSpaceOnUse">
<stop stop-color="#6DC9EC"/>
<stop offset="1" stop-color="#6DC9EC" stop-opacity="0"/>
</linearGradient>
<linearGradient id="paint8_linear_508_1228" x1="66.0853" y1="-3.97711" x2="-27.3812" y2="17.8184" gradientUnits="userSpaceOnUse">
<stop stop-color="#D7AFD2"/>
<stop offset="0.781852" stop-color="#D7AFD2" stop-opacity="0"/>
</linearGradient>
<linearGradient id="paint9_linear_508_1228" x1="69.6623" y1="68.1365" x2="62.0873" y2="8.38572" gradientUnits="userSpaceOnUse">
<stop offset="0.152446" stop-color="#4A4595"/>
<stop offset="0.965424" stop-color="#4A4595" stop-opacity="0"/>
</linearGradient>
<linearGradient id="paint10_linear_508_1228" x1="-7.37895" y1="62.3083" x2="32.4924" y2="28.8654" gradientUnits="userSpaceOnUse">
<stop offset="0.257529" stop-color="#2BADDD"/>
<stop offset="1" stop-color="#2BADDD" stop-opacity="0"/>
</linearGradient>
<linearGradient id="paint11_linear_508_1228" x1="2.32624" y1="3.50187" x2="30.0911" y2="23.4876" gradientUnits="userSpaceOnUse">
<stop stop-color="#6DC9EC"/>
<stop offset="1" stop-color="#6DC9EC" stop-opacity="0"/>
</linearGradient>
<linearGradient id="paint12_linear_508_1228" x1="66.0853" y1="-3.97711" x2="-27.3812" y2="17.8184" gradientUnits="userSpaceOnUse">
<stop stop-color="#D7AFD2"/>
<stop offset="0.781852" stop-color="#D7AFD2" stop-opacity="0"/>
</linearGradient>
<linearGradient id="paint13_linear_508_1228" x1="69.6623" y1="68.1365" x2="62.0873" y2="8.38572" gradientUnits="userSpaceOnUse">
<stop offset="0.152446" stop-color="#4A4595"/>
<stop offset="0.965424" stop-color="#4A4595" stop-opacity="0"/>
</linearGradient>
<linearGradient id="paint14_linear_508_1228" x1="-7.37895" y1="62.3083" x2="32.4924" y2="28.8654" gradientUnits="userSpaceOnUse">
<stop offset="0.257529" stop-color="#2BADDD"/>
<stop offset="1" stop-color="#2BADDD" stop-opacity="0"/>
</linearGradient>
<linearGradient id="paint15_linear_508_1228" x1="2.32624" y1="3.50187" x2="30.0911" y2="23.4876" gradientUnits="userSpaceOnUse">
<stop stop-color="#6DC9EC"/>
<stop offset="1" stop-color="#6DC9EC" stop-opacity="0"/>
</linearGradient>
</defs>
</svg>
