<svg width="44" height="44" viewBox="0 0 44 44" fill="none" xmlns="http://www.w3.org/2000/svg">
<path d="M22 44C9.8494 44 0 34.1506 0 22C0 9.8494 9.8494 0 22 0C34.1506 0 44 9.8494 44 22C43.9868 34.144 34.144 43.9868 22 44ZM22 4.4C18.519 4.4 15.1163 5.43222 12.222 7.36614C9.32766 9.30005 7.07182 12.0488 5.73972 15.2648C4.40762 18.4808 4.05908 22.0195 4.73818 25.4336C5.41728 28.8477 7.09352 31.9837 9.55492 34.4451C12.0163 36.9065 15.1523 38.5827 18.5664 39.2618C21.9805 39.9409 25.5192 39.5924 28.7352 38.2603C31.9512 36.9282 34.7 34.6723 36.6339 31.778C38.5678 28.8837 39.6 25.481 39.6 22C39.5948 17.3338 37.7388 12.8602 34.4393 9.56071C31.1398 6.2612 26.6662 4.40524 22 4.4ZM22 35.2C20.2874 35.229 18.593 34.8441 17.061 34.0781C15.5289 33.312 14.2044 32.1875 13.2 30.8C12.2102 29.4762 11.4651 27.9861 11 26.4H33V26.4176C32.5277 27.9955 31.7832 29.4786 30.8 30.8C29.7955 32.1874 28.4709 33.3118 26.9389 34.0778C25.4069 34.8438 23.7126 35.2288 22 35.2ZM14.3 22C13.4248 22 12.5854 21.6523 11.9665 21.0335C11.3477 20.4146 11 19.5752 11 18.7C11 17.8248 11.3477 16.9854 11.9665 16.3665C12.5854 15.7477 13.4248 15.4 14.3 15.4C15.1752 15.4 16.0146 15.7477 16.6335 16.3665C17.2523 16.9854 17.6 17.8248 17.6 18.7C17.6 19.5752 17.2523 20.4146 16.6335 21.0335C16.0146 21.6523 15.1752 22 14.3 22ZM29.6846 21.9692C28.8135 21.9692 27.978 21.6231 27.362 21.0072C26.7461 20.3912 26.4 19.5557 26.4 18.6846C26.4 17.8135 26.7461 16.978 27.362 16.362C27.978 15.7461 28.8135 15.4 29.6846 15.4C30.5557 15.4 31.3912 15.7461 32.0072 16.362C32.6231 16.978 32.9692 17.8135 32.9692 18.6846C32.9692 19.5557 32.6231 20.3912 32.0072 21.0072C31.3912 21.6231 30.5557 21.9692 29.6846 21.9692Z" fill="#2E27EB"/>
</svg>
