<svg width="36" height="50" viewBox="0 0 36 50" fill="none" xmlns="http://www.w3.org/2000/svg">
<path d="M9.00903 39.2857H26.9914V42.8571H9.00903V39.2857ZM12.6055 46.4286H23.3949V50H12.6055V46.4286ZM18.0002 0C13.231 0 8.65711 1.88137 5.28477 5.23024C1.91243 8.5791 0.0178634 13.1211 0.0178634 17.8571C-0.103743 20.4524 0.396884 23.0392 1.47856 25.4048C2.56024 27.7704 4.19205 29.8472 6.23975 31.4643C8.03798 33.125 9.00903 34.0714 9.00903 35.7143H12.6055C12.6055 32.4286 10.6095 30.5893 8.66737 28.8214C6.98666 27.5433 5.64718 25.8755 4.76624 23.964C3.88531 22.0525 3.48979 19.9557 3.61433 17.8571C3.61433 14.0683 5.12998 10.4347 7.82785 7.75562C10.5257 5.07653 14.1848 3.57143 18.0002 3.57143C21.8156 3.57143 25.4747 5.07653 28.1725 7.75562C30.8704 10.4347 32.3861 14.0683 32.3861 17.8571C32.5085 19.9572 32.1102 22.055 31.2261 23.9667C30.342 25.8783 28.999 27.5453 27.315 28.8214C25.3909 30.6071 23.3949 32.3929 23.3949 35.7143H26.9914C26.9914 34.0714 27.9444 33.125 29.7606 31.4464C31.8069 29.8321 33.438 27.7584 34.5197 25.3959C35.6013 23.0334 36.1027 20.4496 35.9825 17.8571C35.9825 15.5121 35.5174 13.19 34.6137 11.0235C33.71 8.85698 32.3854 6.88842 30.7156 5.23024C29.0458 3.57205 27.0635 2.2567 24.8817 1.35929C22.7 0.461889 20.3617 0 18.0002 0Z" fill="#2E27EB"/>
</svg>
