<svg width="57" height="55" viewBox="0 0 57 55" fill="none" xmlns="http://www.w3.org/2000/svg">
<path d="M18.6304 21.3075L9.35215 33.5814C8.86891 34.2688 8.09564 34.1706 7.70905 33.4832L0.170503 19.7365C-0.216092 19.0491 0.0738072 18.5582 0.846999 18.7545L5.38945 19.5401C6.83918 12.3721 11.1884 5.79329 17.8572 1.86564C19.1136 1.08011 20.4667 0.490956 21.7231 0L24.4294 7.56074C23.5595 7.95351 22.593 8.34626 21.7231 8.83722C17.2773 11.3902 14.3779 15.6124 13.2181 20.3256L17.9538 20.2274C18.8237 20.1292 19.1137 20.6202 18.6304 21.3075ZM48.9782 39.4729L33.8043 37.4109C33.0311 37.3127 32.7412 37.8037 33.1278 38.491L35.544 42.615C31.0015 43.8915 25.9757 43.4006 21.5299 40.8476C20.6601 40.3566 19.8869 39.7675 19.1137 39.1783L14.0879 45.3644C15.151 46.2481 16.4075 47.1318 17.6639 47.8192C24.4294 51.7468 32.1613 52.3359 39.0233 49.9794L40.5697 54.398C40.8596 55.1835 41.3429 55.1835 41.8262 54.4962L49.7513 40.9458C50.0413 40.2584 49.7514 39.6693 48.9782 39.4729ZM48.1083 5.20414L51.1044 1.66926C51.5877 1.08012 51.3944 0.490956 50.6212 0.490956L35.1574 0.294577C34.3842 0.294577 33.9009 0.883734 34.2875 1.66926L40.0864 16.0052C40.3764 16.7907 40.9563 16.7907 41.3429 16.1034L43.6625 11.8812C47.0452 15.2197 49.1715 19.9328 49.1715 25.137C49.1715 26.1189 49.0748 27.199 48.8815 28.1809L56.6134 29.5556C56.8067 28.1809 57 26.708 57 25.2352C56.9034 17.0853 53.5207 10.0155 48.1083 5.20414Z" fill="#2E27EB"/>
</svg>
