<svg width="55" height="55" viewBox="0 0 55 55" fill="none" xmlns="http://www.w3.org/2000/svg">
<path d="M6.875 34.375H17.1875C18.0992 34.375 18.9735 34.7372 19.6182 35.3818C20.2628 36.0265 20.625 36.9008 20.625 37.8125V48.125C20.625 49.0367 20.2628 49.911 19.6182 50.5557C18.9735 51.2003 18.0992 51.5625 17.1875 51.5625H6.875C5.96332 51.5625 5.08898 51.2003 4.44432 50.5557C3.79966 49.911 3.4375 49.0367 3.4375 48.125V37.8125C3.4375 36.9008 3.79966 36.0265 4.44432 35.3818C5.08898 34.7372 5.96332 34.375 6.875 34.375ZM37.8125 3.4375H48.125C49.0367 3.4375 49.911 3.79966 50.5557 4.44432C51.2003 5.08898 51.5625 5.96332 51.5625 6.875V17.1875C51.5625 18.0992 51.2003 18.9735 50.5557 19.6182C49.911 20.2628 49.0367 20.625 48.125 20.625H37.8125C36.9008 20.625 36.0265 20.2628 35.3818 19.6182C34.7372 18.9735 34.375 18.0992 34.375 17.1875V6.875C34.375 5.96332 34.7372 5.08898 35.3818 4.44432C36.0265 3.79966 36.9008 3.4375 37.8125 3.4375ZM37.8125 34.375C36.9008 34.375 36.0265 34.7372 35.3818 35.3818C34.7372 36.0265 34.375 36.9008 34.375 37.8125V48.125C34.375 49.0367 34.7372 49.911 35.3818 50.5557C36.0265 51.2003 36.9008 51.5625 37.8125 51.5625H48.125C49.0367 51.5625 49.911 51.2003 50.5557 50.5557C51.2003 49.911 51.5625 49.0367 51.5625 48.125V37.8125C51.5625 36.9008 51.2003 36.0265 50.5557 35.3818C49.911 34.7372 49.0367 34.375 48.125 34.375H37.8125ZM37.8125 0C35.9891 0 34.2405 0.724328 32.9511 2.01364C31.6618 3.30295 30.9375 5.05164 30.9375 6.875V17.1875C30.9375 19.0109 31.6618 20.7595 32.9511 22.0489C34.2405 23.3382 35.9891 24.0625 37.8125 24.0625H48.125C49.9484 24.0625 51.697 23.3382 52.9864 22.0489C54.2757 20.7595 55 19.0109 55 17.1875V6.875C55 5.05164 54.2757 3.30295 52.9864 2.01364C51.697 0.724328 49.9484 0 48.125 0L37.8125 0ZM6.875 30.9375C5.05164 30.9375 3.30295 31.6618 2.01364 32.9511C0.724328 34.2405 0 35.9891 0 37.8125L0 48.125C0 49.9484 0.724328 51.697 2.01364 52.9864C3.30295 54.2757 5.05164 55 6.875 55H17.1875C19.0109 55 20.7595 54.2757 22.0489 52.9864C23.3382 51.697 24.0625 49.9484 24.0625 48.125V37.8125C24.0625 35.9891 23.3382 34.2405 22.0489 32.9511C20.7595 31.6618 19.0109 30.9375 17.1875 30.9375H6.875ZM30.9375 37.8125C30.9375 35.9891 31.6618 34.2405 32.9511 32.9511C34.2405 31.6618 35.9891 30.9375 37.8125 30.9375H48.125C49.9484 30.9375 51.697 31.6618 52.9864 32.9511C54.2757 34.2405 55 35.9891 55 37.8125V48.125C55 49.9484 54.2757 51.697 52.9864 52.9864C51.697 54.2757 49.9484 55 48.125 55H37.8125C35.9891 55 34.2405 54.2757 32.9511 52.9864C31.6618 51.697 30.9375 49.9484 30.9375 48.125V37.8125ZM0 6.875C0 5.05164 0.724328 3.30295 2.01364 2.01364C3.30295 0.724328 5.05164 0 6.875 0L17.1875 0C19.0109 0 20.7595 0.724328 22.0489 2.01364C23.3382 3.30295 24.0625 5.05164 24.0625 6.875V17.1875C24.0625 19.0109 23.3382 20.7595 22.0489 22.0489C20.7595 23.3382 19.0109 24.0625 17.1875 24.0625H6.875C5.05164 24.0625 3.30295 23.3382 2.01364 22.0489C0.724328 20.7595 0 19.0109 0 17.1875V6.875ZM18.4044 9.81063C18.5642 9.65082 18.6909 9.46111 18.7774 9.25232C18.8639 9.04353 18.9084 8.81974 18.9084 8.59375C18.9084 8.36776 18.8639 8.14397 18.7774 7.93518C18.6909 7.72639 18.5642 7.53668 18.4044 7.37687C18.2446 7.21707 18.0549 7.09031 17.8461 7.00383C17.6373 6.91734 17.4135 6.87283 17.1875 6.87283C16.9615 6.87283 16.7377 6.91734 16.5289 7.00383C16.3201 7.09031 16.1304 7.21707 15.9706 7.37687L10.3125 13.0384L8.09188 10.8144C7.93207 10.6546 7.74236 10.5278 7.53357 10.4413C7.32478 10.3548 7.10099 10.3103 6.875 10.3103C6.64901 10.3103 6.42522 10.3548 6.21643 10.4413C6.00764 10.5278 5.81793 10.6546 5.65812 10.8144C5.49832 10.9742 5.37156 11.1639 5.28508 11.3727C5.19859 11.5815 5.15408 11.8053 5.15408 12.0312C5.15408 12.2572 5.19859 12.481 5.28508 12.6898C5.37156 12.8986 5.49832 13.0883 5.65812 13.2481L9.09562 16.6856C9.25528 16.8457 9.44495 16.9727 9.65376 17.0593C9.86257 17.146 10.0864 17.1906 10.3125 17.1906C10.5386 17.1906 10.7624 17.146 10.9712 17.0593C11.1801 16.9727 11.3697 16.8457 11.5294 16.6856L18.4044 9.81063Z" fill="#2E27EB"/>
</svg>
