<svg width="66" height="55" viewBox="0 0 66 55" fill="none" xmlns="http://www.w3.org/2000/svg">
<path fill-rule="evenodd" clip-rule="evenodd" d="M6.58451 3.87324C5.86543 3.87324 5.17581 4.15889 4.66735 4.66735C4.15889 5.17581 3.87324 5.86543 3.87324 6.58451V46.8662C3.87324 47.5853 4.15889 48.2749 4.66735 48.7833C5.17581 49.2918 5.86544 49.5775 6.58451 49.5775H32.9225C33.9921 49.5775 34.8592 50.4445 34.8592 51.5141C34.8592 52.5837 33.9921 53.4507 32.9225 53.4507H6.58451C4.83818 53.4507 3.16339 52.757 1.92856 51.5221C0.693724 50.2873 0 48.6125 0 46.8662V6.58451C0 4.83819 0.693723 3.16339 1.92856 1.92856C3.16339 0.693722 4.83819 0 6.58451 0H59.2606C61.0069 0 62.6817 0.693723 63.9165 1.92856C65.1513 3.16339 65.8451 4.83818 65.8451 6.58451V25.2675C65.8451 26.337 64.978 27.2041 63.9085 27.2041C62.8389 27.2041 61.9718 26.337 61.9718 25.2675V6.58451C61.9718 5.86544 61.6862 5.17581 61.1777 4.66735C60.6693 4.15889 59.9796 3.87324 59.2606 3.87324H6.58451Z" fill="#2E27EB"/>
<path fill-rule="evenodd" clip-rule="evenodd" d="M6.58451 3.87324C5.86543 3.87324 5.17581 4.15889 4.66735 4.66735C4.15889 5.17581 3.87324 5.86543 3.87324 6.58451V18.5915H61.9718V6.58451C61.9718 5.86544 61.6862 5.17581 61.1777 4.66735C60.6693 4.15889 59.9796 3.87324 59.2606 3.87324H6.58451ZM1.92856 1.92856C3.16339 0.693722 4.83819 0 6.58451 0H59.2606C61.0069 0 62.6817 0.693723 63.9165 1.92856C65.1513 3.16339 65.8451 4.83818 65.8451 6.58451V22.4648H0V6.58451C0 4.83819 0.693723 3.16339 1.92856 1.92856Z" fill="#2E27EB"/>
<path d="M8.13387 11.2325C8.13387 9.52116 9.52116 8.13387 11.2325 8.13387C12.9438 8.13387 14.3311 9.52116 14.3311 11.2325C14.3311 12.9438 12.9438 14.3311 11.2325 14.3311C9.52116 14.3311 8.13387 12.9438 8.13387 11.2325Z" fill="#2E27EB"/>
<path d="M17.4298 11.2325C17.4298 9.52116 18.8171 8.13387 20.5284 8.13387C22.2397 8.13387 23.627 9.52116 23.627 11.2325C23.627 12.9438 22.2397 14.3311 20.5284 14.3311C18.8171 14.3311 17.4298 12.9438 17.4298 11.2325Z" fill="#2E27EB"/>
<path fill-rule="evenodd" clip-rule="evenodd" d="M53.063 39.507C51.5656 39.507 50.3518 40.7209 50.3518 42.2183C50.3518 43.7157 51.5656 44.9296 53.063 44.9296C54.5604 44.9296 55.7743 43.7157 55.7743 42.2183C55.7743 40.7209 54.5604 39.507 53.063 39.507ZM46.4785 42.2183C46.4785 38.5818 49.4265 35.6338 53.063 35.6338C56.6995 35.6338 59.6475 38.5818 59.6475 42.2183C59.6475 45.8548 56.6995 48.8028 53.063 48.8028C49.4265 48.8028 46.4785 45.8548 46.4785 42.2183Z" fill="#2E27EB"/>
<path fill-rule="evenodd" clip-rule="evenodd" d="M53.0631 29.4365C54.1327 29.4365 54.9998 30.3036 54.9998 31.3731V37.5703C54.9998 38.6399 54.1327 39.5069 53.0631 39.5069C51.9936 39.5069 51.1265 38.6399 51.1265 37.5703V31.3731C51.1265 30.3036 51.9936 29.4365 53.0631 29.4365ZM41.9942 35.8273C42.529 34.9011 43.7134 34.5837 44.6396 35.1185L50.0064 38.2171C50.9327 38.7519 51.25 39.9363 50.7152 40.8626C50.1804 41.7889 48.996 42.1062 48.0697 41.5714L42.703 38.4728C41.7767 37.938 41.4594 36.7536 41.9942 35.8273ZM64.1321 35.8273C64.6669 36.7536 64.3496 37.938 63.4233 38.4728L58.0566 41.5714C57.1303 42.1062 55.9459 41.7889 55.4111 40.8626C54.8763 39.9363 55.1936 38.7519 56.1199 38.2171L61.4867 35.1185C62.4129 34.5837 63.5973 34.9011 64.1321 35.8273ZM50.7152 43.5738C51.25 44.5001 50.9327 45.6845 50.0064 46.2193L44.6396 49.3179C43.7134 49.8527 42.529 49.5353 41.9942 48.6091C41.4594 47.6828 41.7767 46.4984 42.703 45.9636L48.0697 42.865C48.996 42.3302 50.1804 42.6476 50.7152 43.5738ZM55.4111 43.5738C55.9459 42.6476 57.1303 42.3302 58.0566 42.865L63.4233 45.9636C64.3496 46.4984 64.6669 47.6828 64.1321 48.6091C63.5973 49.5353 62.4129 49.8527 61.4867 49.3179L56.1199 46.2193C55.1936 45.6845 54.8763 44.5001 55.4111 43.5738ZM53.0631 44.9295C54.1327 44.9295 54.9998 45.7965 54.9998 46.8661V53.0633C54.9998 54.1329 54.1327 54.9999 53.0631 54.9999C51.9936 54.9999 51.1265 54.1329 51.1265 53.0633V46.8661C51.1265 45.7965 51.9936 44.9295 53.0631 44.9295Z" fill="#2E27EB"/>
</svg>
