<svg width="60" height="51" viewBox="0 0 60 51" fill="none" xmlns="http://www.w3.org/2000/svg">
<path d="M12.857 33.4331V45.9706H55.7141V16.7165H47.1427V12.5374H57.2527C58.2084 12.5374 58.5556 12.6335 58.9027 12.8174C59.2495 12.9947 59.5333 13.27 59.717 13.6072C59.9013 13.9457 59.9999 14.2842 59.9999 15.2162V47.4709C59.9999 48.4029 59.9013 48.7414 59.7127 49.0799C59.5308 49.418 59.2485 49.6948 58.9027 49.8739C58.5556 50.0537 58.2084 50.1498 57.2527 50.1498H11.3184C10.3627 50.1498 10.0156 50.0536 9.66843 49.8698C9.32168 49.6924 9.03789 49.4171 8.85415 49.0799C8.67415 48.7414 8.57129 48.4029 8.57129 47.4751V33.4331H12.857Z" fill="#2E27EB"/>
<path d="M47.1429 4.17916H4.28571V33.4333H47.1429V4.17916ZM51.4286 2.67884V34.9336C51.4286 35.8655 51.33 36.204 51.1414 36.5426C50.9595 36.8807 50.6772 37.1574 50.3314 37.3366C49.9843 37.5163 49.6371 37.6124 48.6814 37.6124H2.74714C1.79143 37.6124 1.44429 37.5163 1.09714 37.3324C0.750393 37.155 0.466597 36.8797 0.282857 36.5426C0.102857 36.204 0 35.8655 0 34.9378V2.67884C0 1.74689 0.0985716 1.40838 0.287143 1.06986C0.469055 0.731735 0.751357 0.454996 1.09714 0.275824C1.44429 0.1003 1.79143 0 2.74286 0H48.6771C49.6329 0 49.98 0.0961203 50.3271 0.280003C50.6739 0.457393 50.9577 0.732676 51.1414 1.06986C51.3257 1.40838 51.4243 1.74689 51.4243 2.67884H51.4286Z" fill="#2E27EB"/>
<path d="M25.7143 29.2542C22.8727 29.2542 20.1475 28.1534 18.1381 26.1941C16.1288 24.2347 15 21.5772 15 18.8063C15 16.0353 16.1288 13.3779 18.1381 11.4185C20.1475 9.45916 22.8727 8.3584 25.7143 8.3584C28.5559 8.3584 31.2811 9.45916 33.2904 11.4185C35.2997 13.3779 36.4286 16.0353 36.4286 18.8063C36.4286 21.5772 35.2997 24.2347 33.2904 26.1941C31.2811 28.1534 28.5559 29.2542 25.7143 29.2542ZM25.7143 25.075C27.4192 25.075 29.0544 24.4146 30.26 23.239C31.4656 22.0633 32.1429 20.4689 32.1429 18.8063C32.1429 17.1437 31.4656 15.5492 30.26 14.3736C29.0544 13.198 27.4192 12.5376 25.7143 12.5376C24.0093 12.5376 22.3742 13.198 21.1686 14.3736C19.963 15.5492 19.2857 17.1437 19.2857 18.8063C19.2857 20.4689 19.963 22.0633 21.1686 23.239C22.3742 24.4146 24.0093 25.075 25.7143 25.075Z" fill="#2E27EB"/>
</svg>
