<svg width="54" height="46" viewBox="0 0 54 46" fill="none" xmlns="http://www.w3.org/2000/svg">
<path d="M31.509 19.0419C31.2951 19.0404 31.0893 19.1238 30.9365 19.2739C30.7838 19.4239 30.6964 19.6285 30.6936 19.8428V25.8284C30.6964 26.0433 30.7842 26.2482 30.9375 26.3983C31.0909 26.5485 31.2973 26.6316 31.5117 26.6294H49.5018C49.7162 26.6316 49.9226 26.5485 50.076 26.3983C50.2293 26.2482 50.3171 26.0433 50.3199 25.8284V19.8428C50.3171 19.628 50.2293 19.4231 50.076 19.2729C49.9226 19.1228 49.7162 19.0397 49.5018 19.0419H31.5117H31.509ZM42.5412 0.00270609C45.0306 0.121768 46.8207 0.614253 47.9547 1.65876C49.0752 2.69243 49.6503 4.18883 49.7637 6.1696V11.844C49.758 12.3272 49.5612 12.7885 49.2164 13.1264C48.8717 13.4643 48.4072 13.6512 47.925 13.6462C47.686 13.649 47.4488 13.6047 47.2269 13.5157C47.005 13.4266 46.8028 13.2947 46.6318 13.1273C46.4608 12.96 46.3244 12.7605 46.2304 12.5403C46.1363 12.3201 46.0864 12.0835 46.0836 11.844L46.0863 6.27242C46.0269 5.24416 45.7812 4.60555 45.4302 4.28083C45.09 3.96694 44.0532 3.68552 42.4521 3.60434H7.1469C5.697 3.65846 4.7547 3.93447 4.2984 4.32684C3.9474 4.6272 3.6828 5.45522 3.6801 6.88668L3.672 38.7359C3.807 40.1267 4.1121 41.0549 4.5036 41.5176C4.8006 41.8694 5.7213 42.2211 7.0767 42.3943H42.4899C44.1477 42.4268 45.1251 42.1779 45.4545 41.845C45.819 41.4743 46.0836 40.5002 46.0836 38.9063V33.3726C46.0836 32.3796 46.9071 31.5705 47.925 31.5705C48.9402 31.5705 49.7637 32.3796 49.7637 33.3726V38.9063C49.7637 41.3417 49.2669 43.1628 48.1032 44.3453C46.9044 45.563 44.9982 46.0501 42.4521 45.996L6.858 45.9879C4.4361 45.7064 2.7 45.0408 1.6659 43.815C0.729 42.7055 0.2079 41.1225 0 38.909V6.88397C0.0054 4.51355 0.5724 2.73032 1.8738 1.61546C3.0672 0.587194 4.7898 0.0865908 7.0767 0H42.5412V0.00270609ZM49.5018 15.4375C51.9858 15.4375 54 17.4102 54 19.8428V25.8284C54 28.2611 51.9858 30.2337 49.5018 30.2337H31.5117C29.0277 30.2337 27.0135 28.2584 27.0135 25.8284V19.8428C27.0135 17.4102 29.0277 15.4375 31.5117 15.4375H49.5018ZM36.0099 20.6871C34.7679 20.6871 33.7608 21.6612 33.7608 22.86C33.7608 24.0614 34.7679 25.0329 36.0099 25.0329C37.2519 25.0329 38.259 24.0587 38.259 22.86C38.259 21.6585 37.2519 20.6844 36.0099 20.6844V20.6871Z" fill="#2E27EB"/>
</svg>
