<svg width="36" height="51" viewBox="0 0 36 51" fill="none" xmlns="http://www.w3.org/2000/svg">
<path d="M7.38253 50.4H1.38253V37.9H7.38253V50.4ZM16.2824 34.7H10.2824V50.4H16.2824V34.7ZM25.2824 31.1H19.2824V50.4H25.2824V31.1ZM34.1823 22.5H28.1823V50.4H34.1823V22.5ZM33.3825 0C31.9825 0 30.0825 0.399963 29.0825 1.39996C27.0825 3.29996 24.0824 4.59998 21.4824 6.09998C20.5824 6.59998 19.1824 7.99995 20.7824 8.69995C22.2824 9.29995 24.4825 8.8 25.8825 8C26.0825 7.9 26.1825 7.79995 26.3825 7.69995C24.4825 11.9 21.9825 15.8 18.8825 19.2C16.7825 21.5 14.4825 23.2 11.8825 24.6C11.7825 24.7 11.6823 24.7 11.6823 24.7C11.5823 24.7 11.5824 24.8 11.4824 24.8C11.1824 24.9 10.8824 25.1 10.4824 25.2C10.1824 25.3 9.88248 25.4 9.58248 25.5C10.0825 25.3 8.88243 25.7 8.78243 25.7C7.58243 26 6.48248 26.2 5.08248 26.2C3.48248 26.2 1.28243 26.8 0.282432 28.1C-0.717568 29.5 1.18233 30 2.18233 30C15.2823 29.9 25.7824 21.3 31.7824 10.2C31.7824 11.6 31.7824 12.9 31.7824 14.3C31.7824 14.8 35.3825 14.3 35.3825 13.3C35.3825 9.49999 35.3825 5.69996 35.3825 1.89996C35.4825 1.69996 35.4825 1.49996 35.5825 1.39996C35.8825 0.299963 34.0825 0 33.3825 0Z" fill="#2E27EB"/>
</svg>
