<?xml version="1.0" encoding="utf-8"?>
<!-- Generator: Adobe Illustrator 25.2.0, SVG Export Plug-In . SVG Version: 6.00 Build 0)  -->
<svg version="1.1" id="Слой_1" xmlns="http://www.w3.org/2000/svg" xmlns:xlink="http://www.w3.org/1999/xlink" x="0px" y="0px"
	 viewBox="0 0 197.6 43.7" style="enable-background:new 0 0 197.6 43.7;" xml:space="preserve">
<style type="text/css">
	.st0{fill:#FFFFFF;}
	.st1{clip-path:url(#SVGID_1_);}
	.st2{clip-path:url(#SVGID_3_);}
</style>
<g>
	<path class="st0" d="M153.3,36h-15.6c-4.1,0-7.9-2.1-10.1-5.5c-3.2-5-3.5-10.7-0.9-15.4c2.5-4.5,7.3-7.4,12.4-7.4h14.2V13h-14.2
		c-3.2,0-6.2,1.8-7.7,4.6c-1.7,3-1.4,6.7,0.7,10c1.2,1.9,3.3,3.1,5.6,3.1h15.6V36z"/>
	<g>
		<rect x="54" y="7.7" class="st0" width="28.3" height="5.4"/>
		<polygon class="st0" points="54,24.5 82.3,24.5 82.3,19.2 59.3,19.2 59.3,17 54,17 54,24.5 54,24.5 		"/>
		<polygon class="st0" points="59.3,30.7 59.3,28.5 54,28.5 54,36 54,36 54,36 82.3,36 82.3,30.7 		"/>
	</g>
	<polygon class="st0" points="186.9,21 180.6,21 177.4,15.6 165,36.3 158.7,36.3 176,7.5 178.8,7.5 	"/>
	<g>
		<defs>
			<path id="SVGID_7_" d="M37.9,13V7.7H23.7c-5.2,0-9.9,2.8-12.4,7.4C8.7,19.8,9,25.4,12.2,30.5c2.2,3.5,6,5.5,10.1,5.5H46v6.8H22.5
				c-11.6,0-21-9.4-21-21v0c0-11.6,9.4-21,21-21H46v29.8H22.3c-2.3,0-4.4-1.1-5.6-3.1c-2.1-3.3-2.4-7-0.7-10
				c1.6-2.8,4.5-4.6,7.7-4.6H37.9z"/>
		</defs>
		<clipPath id="SVGID_1_">
			<use xlink:href="#SVGID_7_"  style="overflow:visible;"/>
		</clipPath>
		<g class="st1">
			<g>
				<defs>
					<rect id="SVGID_2_" x="1.5" y="0.9" width="44.5" height="42"/>
				</defs>
				<clipPath id="SVGID_3_">
					<use xlink:href="#SVGID_2_"  style="overflow:visible;"/>
				</clipPath>
				<g class="st2">
					<g>
						<defs>
							<rect id="SVGID_4_" x="-3.5" y="-4.1" width="54.5" height="52"/>
						</defs>
						<clipPath id="SVGID_5_">
							<use xlink:href="#SVGID_4_"  style="overflow:visible;"/>
						</clipPath>
						<g style="clip-path:url(#SVGID_5_);">
							
								<image style="overflow:visible;" width="114" height="110" xlink:href="gradient.jpg"  transform="matrix(0.48 0 0 0.48 -3.7022 -4.5829)">
							</image>
						</g>
					</g>
				</g>
			</g>
		</g>
	</g>
	<path class="st0" d="M110.1,36H89.8v-5.4l20.3,0c0.8,0,1.5-0.3,2-1c1.7-2.5,0-5.2-2.4-5.2l-11.9,0c-3,0-5.9-1.7-7.2-4.5
		c-2.9-6.3,1.6-12.4,7.5-12.4h18.4V13l-18.8,0c-0.8,0-1.5,0.3-2,1c-1.7,2.5,0,5.2,2.4,5.2h11.5c5.9,0,10.5,6.2,7.5,12.4
		C116,34.3,113.2,36,110.1,36z"/>
	<polygon class="st0" points="196.1,36.3 189.8,36.3 185.3,28.8 179.4,28.8 176.2,23.4 188.3,23.4 190.3,26.7 192.7,30.6 
		195.8,35.8 	"/>
	<polyline class="st0" points="188.3,23.4 190.3,26.7 192.7,30.6 	"/>
</g>
</svg>
