<svg width="71" height="56" viewBox="0 0 71 56" fill="none" xmlns="http://www.w3.org/2000/svg">
<path d="M58.5572 16.2308C54.9689 6.74649 45.8257 0 35.1156 0C24.4055 0 15.2623 6.73865 11.674 16.223C4.92829 18.0037 -0.0389437 24.1775 0.000230087 31.5045C0.0472386 39.6945 6.39339 46.3547 14.3848 47.0686C14.7531 47.0999 15.0665 46.8097 15.0665 46.441V41.7027C15.0665 41.3889 14.8314 41.1222 14.518 41.083C12.4026 40.8163 10.4048 39.8906 8.86917 38.3766C6.98883 36.533 5.95465 34.0541 5.95465 31.4261C5.95465 29.2296 6.66761 27.1586 8.00735 25.4327C9.31576 23.7539 11.1569 22.538 13.1861 22.0045L16.1555 21.2201L17.2445 18.341C17.9183 16.5524 18.8585 14.8737 20.0415 13.3596C21.2089 11.8534 22.5957 10.5355 24.147 9.43724C27.367 7.17011 31.1591 5.96986 35.1156 5.96986C39.0722 5.96986 42.8642 7.17011 46.0843 9.44509C47.6434 10.5434 49.0223 11.8613 50.1897 13.3675C51.3727 14.8815 52.3129 16.5603 52.9867 18.3489L54.0679 21.2201L57.0294 22.0045C61.2759 23.1342 64.2452 27.0017 64.2452 31.4183C64.2452 34.0541 63.211 36.5252 61.3307 38.3687C59.8029 39.8749 57.8129 40.8084 55.6975 41.0752C55.3841 41.1144 55.1569 41.3811 55.1569 41.6949V46.441C55.1569 46.8097 55.4781 47.0999 55.8464 47.0686C63.8143 46.3468 70.1448 39.6945 70.1997 31.5202C70.2467 24.1932 65.2873 18.0194 58.5572 16.2308Z" fill="#2E27EB"/>
<path d="M24.5148 38.7847C24.6558 36.1567 25.7449 33.7091 27.6096 31.8342C29.5996 29.8338 32.3104 28.712 35.1309 28.712C37.9671 28.712 40.6388 29.8181 42.6523 31.8342C42.762 31.9441 42.8638 32.0539 42.9735 32.1716L41.0148 33.7091C40.9215 33.7814 40.8504 33.8786 40.8098 33.9895C40.7692 34.1004 40.7607 34.2206 40.7853 34.3361C40.8098 34.4517 40.8664 34.5579 40.9486 34.6427C41.0308 34.7275 41.1352 34.7873 41.2499 34.8152L48.9436 36.698C49.3353 36.7921 49.7192 36.494 49.7192 36.0939L49.7584 28.1472C49.7584 27.6216 49.163 27.3235 48.7477 27.653L46.9301 29.0807C44.0625 25.7859 39.8474 23.6992 35.1388 23.6992C26.7242 23.6992 19.861 30.3751 19.5162 38.7376C19.5006 39.0906 19.7826 39.3887 20.143 39.3887H23.8959C24.2249 39.3809 24.4992 39.122 24.5148 38.7847ZM50.064 39.3809H46.3111C45.9821 39.3809 45.7078 39.6398 45.6843 39.9771C45.5433 42.6051 44.4543 45.0527 42.5896 46.9276C40.5996 48.928 37.8888 50.0498 35.0682 50.0498C32.2321 50.0498 29.5604 48.9437 27.5469 46.9276C27.4372 46.8177 27.3353 46.7079 27.2256 46.5902L29.1843 45.0527C29.2777 44.9804 29.3487 44.8832 29.3893 44.7723C29.4299 44.6613 29.4384 44.5412 29.4139 44.4257C29.3893 44.3101 29.3327 44.2038 29.2505 44.1191C29.1683 44.0343 29.0639 43.9745 28.9493 43.9465L21.2556 42.0638C20.8638 41.9697 20.4799 42.2678 20.4799 42.6678L20.4486 50.6224C20.4486 51.148 21.044 51.4461 21.4593 51.1167L23.2769 49.6889C26.1445 52.9837 30.3596 55.0704 35.0682 55.0704C43.4828 55.0704 50.346 48.3945 50.6907 40.032C50.7064 39.679 50.4244 39.3809 50.064 39.3809Z" fill="#2E27EB"/>
</svg>
