<svg width="47" height="54" viewBox="0 0 47 54" fill="none" xmlns="http://www.w3.org/2000/svg">
<path d="M27.9924 37.1929C27.9924 32.8119 27.9924 28.4299 27.9924 24.047C27.9924 22.1493 28.8979 21.1896 30.7767 21.1788C35.2038 21.1516 39.631 21.1435 44.0608 21.1788C46.1104 21.1977 46.9752 22.0626 46.9833 24.0931C47.005 32.8552 47.005 41.621 46.9833 50.3903C46.9833 52.4507 46.1158 53.2965 44.0825 53.3101C39.6563 53.3372 35.2282 53.3372 30.7984 53.3101C28.8329 53.3101 28.0006 52.4426 27.9952 50.477C27.9843 46.0418 27.9952 41.6201 27.9924 37.1929ZM30.5625 50.7482H44.3889V23.8518H30.5625V50.7482Z" fill="#2E27EB"/>
<path d="M11.7593 32.7576C8.74464 32.7576 5.72995 32.7576 2.71527 32.7576C1.11304 32.7576 0.234656 32.0961 0.0638602 30.4776C-0.0798253 29.0977 0.0638602 27.6906 0.0638602 26.2972C0.0638602 18.6177 0.0638602 10.9364 0.0638602 3.25326C0.0638602 0.680473 0.714512 0.0162663 3.25205 0C7.45237 0 11.6527 0 15.853 0C18.2496 0 19.1063 0.84313 19.0656 3.28036C19.0276 6.9701 18.8948 10.6598 18.9002 14.3496C18.9002 19.3894 19.0249 24.4293 19.0683 29.4718C19.09 31.8901 18.255 32.7251 15.834 32.7251C14.4785 32.7251 13.123 32.7251 11.7675 32.7251L11.7593 32.7576ZM16.566 2.58905H2.50652V30.3556H16.566V2.58905Z" fill="#2E27EB"/>
<path d="M20.8988 45.7976C19.7276 42.5606 19.7276 42.5607 21.14 42.0673C22.7667 42.9511 25.0792 47.736 24.4394 49.4901C22.3898 49.6907 20.1695 49.951 17.9329 50.0919C17.556 50.1163 17.1467 49.6392 16.355 49.1485L18.5239 47.305C18.0223 46.958 17.331 46.4917 16.6478 45.9983C13.7741 43.9541 11.8276 41.178 10.3663 38.0224C10.2714 37.819 10.0952 37.5723 10.1576 37.3934C10.3257 36.7644 10.5751 36.1572 10.792 35.5417C11.3342 35.8942 12.0662 36.1273 12.405 36.6262C13.0611 37.5805 13.4352 38.7218 14.0317 39.7168C15.6447 42.3655 17.941 44.2713 20.8988 45.7976Z" fill="#2E27EB"/>
<path d="M37.2429 17.4211C36.8065 16.8247 36.3727 16.418 36.1585 15.9192C34.4777 11.98 31.6636 9.14155 27.8248 7.13538C27.6025 8.37975 29.8445 9.80034 27.1578 10.9444C26.518 10.0172 25.8267 9.08191 25.2086 8.10051C24.6664 7.22755 24.1676 6.31122 23.6823 5.38946C23.197 4.4677 23.4112 3.58391 24.3465 3.42124C26.4204 3.05525 28.5405 2.94952 30.6443 2.77059C30.834 2.75162 31.0455 2.9441 31.2325 3.0417C31.8642 4.55175 30.8584 4.95841 29.549 5.28373C34.0656 7.96767 37.3134 11.4297 38.7665 16.4478L37.2429 17.4211Z" fill="#2E27EB"/>
<path d="M43.2401 42.2463C42.931 42.7885 42.7331 43.122 42.4268 43.6371H37.921C36.392 43.6371 34.8521 43.7103 33.3339 43.5801C32.8757 43.5395 32.1275 42.9241 32.1221 42.5608C32.1221 42.1216 32.7375 41.2947 33.1089 41.2812C36.0287 41.1809 38.9566 41.1944 41.8764 41.2812C42.3265 41.3056 42.7575 41.8966 43.2401 42.2463Z" fill="#2E27EB"/>
<path d="M43.1201 45.8518C42.849 47.3429 42.1712 47.6547 41.2576 47.6547C38.7309 47.6547 36.2015 47.6547 33.6667 47.6547C32.7666 47.6547 31.994 47.3836 32.04 46.2992C32.0861 45.2147 32.9184 45.2147 33.7182 45.2147C36.2476 45.2147 38.7743 45.1741 41.3091 45.2418C41.9164 45.2581 42.5155 45.6377 43.1201 45.8518Z" fill="#2E27EB"/>
<path d="M37.3273 27.3111C38.4497 27.3925 39.3118 28.3034 39.2251 29.3309C39.1383 30.3583 38.0566 31.2584 36.9559 31.1554C36.6987 31.1394 36.4475 31.0713 36.2175 30.955C35.9875 30.8388 35.7836 30.6769 35.6182 30.4793C35.4529 30.2817 35.3294 30.0525 35.2555 29.8057C35.1816 29.5588 35.1587 29.2995 35.1883 29.0435C35.3103 27.913 36.1589 27.2271 37.3273 27.3111Z" fill="#2E27EB"/>
<path d="M14.8797 20.7287C15.0424 22.4503 14.4839 22.9708 13.1447 22.9572C10.3252 22.9301 7.50569 22.9572 4.45034 22.9572C4.29038 22.3391 3.92168 21.7183 4.09519 21.3658C4.24069 21.1278 4.43826 20.9258 4.67303 20.7751C4.90781 20.6243 5.1737 20.5288 5.45071 20.4956C7.15054 20.482 8.85308 20.6664 10.5556 20.7342C11.0978 20.7558 11.6238 20.5878 12.1551 20.5932C13.0633 20.5959 13.9634 20.6772 14.8797 20.7287Z" fill="#2E27EB"/>
<path d="M4.36328 26.5983V24.3155H12.9492C13.2637 24.3155 13.6486 24.2152 13.8791 24.3589C14.3011 24.6686 14.694 25.0162 15.0529 25.3973C14.6598 25.7958 14.2803 26.5332 13.8736 26.5467C10.8318 26.6443 7.78191 26.5983 4.36328 26.5983Z" fill="#2E27EB"/>
<path d="M11.6997 8.13844C11.6997 9.14966 10.6153 10.207 9.57153 10.1907C9.05324 10.1533 8.56725 9.92499 8.20765 9.54987C7.84805 9.17475 7.64044 8.67954 7.625 8.16013C7.625 6.98624 8.35969 6.20546 9.539 6.17293C10.6451 6.1404 11.6916 7.08927 11.6997 8.13844Z" fill="#2E27EB"/>
</svg>
